<svg version="1.1" xmlns="http://www.w3.org/2000/svg" viewBox="0 0 1364.2223307291665 791.7778218587239" width="1364.2223307291665" height="791.7778218587239">
  <!-- svg-source:excalidraw -->
  
  <defs>
    <style class="style-fonts">
      @font-face {
        font-family: "Virgil";
        src: url("https://excalidraw.com/Virgil.woff2");
      }
      @font-face {
        font-family: "Cascadia";
        src: url("https://excalidraw.com/Cascadia.woff2");
      }
      @font-face {
        font-family: "Assistant";
        src: url("https://excalidraw.com/Assistant-Regular.woff2");
      }
    </style>
    
  </defs>
  <rect x="0" y="0" width="1364.2223307291665" height="791.7778218587239" fill="#fffce8"></rect><g stroke-linecap="round" transform="translate(14.6666259765625 259.7778065999348) rotate(0 98.66668701171875 42.00000762939453)"><path d="M21 0 C65.04 0.14, 112.32 0.15, 176.33 0 M21 0 C67.23 -0.04, 114.29 -0.04, 176.33 0 M176.33 0 C188.41 -0.56, 197.35 6.55, 197.33 21 M176.33 0 C189.82 -0.7, 198.62 5.46, 197.33 21 M197.33 21 C198.68 32.61, 197.92 43.1, 197.33 63 M197.33 21 C196.77 36.96, 197.62 54.99, 197.33 63 M197.33 63 C197.25 76.74, 191.3 85.33, 176.33 84 M197.33 63 C197.61 75.27, 191.25 85.97, 176.33 84 M176.33 84 C129.47 83.32, 80.29 82.93, 21 84 M176.33 84 C119.96 82.6, 63.82 83.4, 21 84 M21 84 C7.29 82.3, 0.16 76.74, 0 63 M21 84 C5.37 82.49, -1.58 78.23, 0 63 M0 63 C-1.67 46.7, -0.23 28.92, 0 21 M0 63 C-0.31 47.06, -0.56 31.75, 0 21 M0 21 C-1.27 7.05, 8.51 1.24, 21 0 M0 21 C-2.27 5.68, 7.8 -1.29, 21 0" stroke="#1e1e1e" stroke-width="2" fill="none"></path></g><g transform="translate(57.69336700439453 289.27781422932935) rotate(0 55.63994598388672 12.5)"><text x="55.63994598388672" y="17.52" font-family="Virgil, Segoe UI Emoji" font-size="20px" fill="#1e1e1e" text-anchor="middle" style="white-space: pre;" direction="ltr" dominant-baseline="alphabetic">Signup page</text></g><g stroke-linecap="round" transform="translate(13.33331298828125 381.7778065999348) rotate(0 98.66668701171875 42.00000762939453)"><path d="M21 0 C70.37 0.04, 122.54 2.8, 176.33 0 M21 0 C75.17 -0.4, 128.46 -0.15, 176.33 0 M176.33 0 C191.4 1.11, 198.34 8.24, 197.33 21 M176.33 0 C192.42 1.45, 195.5 7.87, 197.33 21 M197.33 21 C199.03 36.48, 197.66 50.27, 197.33 63 M197.33 21 C198.48 34.21, 197.89 46.91, 197.33 63 M197.33 63 C197.28 75.93, 191.04 83.16, 176.33 84 M197.33 63 C195.94 78.6, 192.01 82.06, 176.33 84 M176.33 84 C133.11 84.59, 87.36 82.69, 21 84 M176.33 84 C143.36 84.16, 110.58 85.74, 21 84 M21 84 C6.03 85.63, -1.42 78.41, 0 63 M21 84 C5.7 84.22, 1.04 77.37, 0 63 M0 63 C1.8 46.93, 0.73 33.09, 0 21 M0 63 C0.21 51.21, -0.62 41.07, 0 21 M0 21 C1.59 6.5, 5.07 0.08, 21 0 M0 21 C0.89 5.13, 9.1 -1.08, 21 0" stroke="#1e1e1e" stroke-width="2" fill="none"></path></g><g transform="translate(35.37005615234375 411.27781422932935) rotate(0 76.62994384765625 12.5)"><text x="76.62994384765625" y="17.52" font-family="Virgil, Segoe UI Emoji" font-size="20px" fill="#1e1e1e" text-anchor="middle" style="white-space: pre;" direction="ltr" dominant-baseline="alphabetic">Email Validation</text></g><g stroke-linecap="round" transform="translate(10 511.1111806233723) rotate(0 98.66668701171875 42.00000762939453)"><path d="M21 0 C60.4 1.47, 97.03 -1.06, 176.33 0 M21 0 C56.24 -2.38, 91.42 -0.77, 176.33 0 M176.33 0 C191.46 1.57, 196.27 5.68, 197.33 21 M176.33 0 C188.44 -0.35, 198.81 7.76, 197.33 21 M197.33 21 C198.44 36.84, 197.33 52.57, 197.33 63 M197.33 21 C198.04 35.81, 196.9 49.68, 197.33 63 M197.33 63 C198.29 76.09, 191.48 82.22, 176.33 84 M197.33 63 C196.47 76.27, 189.05 84.3, 176.33 84 M176.33 84 C133.25 84.38, 89.21 85.43, 21 84 M176.33 84 C115.51 83.18, 55.34 84.18, 21 84 M21 84 C6.95 84.76, -1.7 76.53, 0 63 M21 84 C8.04 84.19, -1.68 75.52, 0 63 M0 63 C-1.38 45.55, -1.49 31.57, 0 21 M0 63 C-0.13 48.8, -0.98 36.12, 0 21 M0 21 C0.82 5.77, 6.59 0.23, 21 0 M0 21 C-2.06 6.99, 6.9 1.2, 21 0" stroke="#1e1e1e" stroke-width="2" fill="none"></path></g><g transform="translate(55.536720275878906 540.6111882527669) rotate(0 53.129966735839844 12.5)"><text x="53.129966735839844" y="17.52" font-family="Virgil, Segoe UI Emoji" font-size="20px" fill="#1e1e1e" text-anchor="middle" style="white-space: pre;" direction="ltr" dominant-baseline="alphabetic">Save data</text></g><g stroke-linecap="round"><g transform="translate(111.33331298828125 341.11113484700513) rotate(0 0 21)"><path d="M0.16 0.51 C0.19 7.6, 0.04 35.53, 0.03 42.52 M-0.42 0.29 C-0.44 7.24, -0.42 34.94, -0.39 41.82" stroke="#1e1e1e" stroke-width="2" fill="none"></path></g><g transform="translate(111.33331298828125 341.11113484700513) rotate(0 0 21)"><path d="M-7.62 22.11 C-4.76 27.43, -2.79 32.8, -0.39 41.82 M-7.62 22.11 C-5.09 29.98, -2.46 36.61, -0.39 41.82" stroke="#1e1e1e" stroke-width="2" fill="none"></path></g><g transform="translate(111.33331298828125 341.11113484700513) rotate(0 0 21)"><path d="M6.75 22.07 C5.76 27.43, 3.87 32.8, -0.39 41.82 M6.75 22.07 C3.83 29.99, 1.04 36.63, -0.39 41.82" stroke="#1e1e1e" stroke-width="2" fill="none"></path></g></g><mask></mask><g stroke-linecap="round"><g transform="translate(108 470.44450887044263) rotate(0 0 21)"><path d="M0.19 0.22 C0.15 7.08, -0.42 34.56, -0.51 41.61 M-0.38 -0.14 C-0.23 7.01, 0.27 35.14, 0.46 42.11" stroke="#1e1e1e" stroke-width="2" fill="none"></path></g><g transform="translate(108 470.44450887044263) rotate(0 0 21)"><path d="M-7.15 22.54 C-4.76 26.48, -3.98 31.65, 0.46 42.11 M-7.15 22.54 C-4.61 30.54, -0.95 38.26, 0.46 42.11" stroke="#1e1e1e" stroke-width="2" fill="none"></path></g><g transform="translate(108 470.44450887044263) rotate(0 0 21)"><path d="M7.21 22.22 C6.03 26.26, 3.23 31.51, 0.46 42.11 M7.21 22.22 C4.14 30.28, 2.18 38.12, 0.46 42.11" stroke="#1e1e1e" stroke-width="2" fill="none"></path></g></g><mask></mask><g stroke-linecap="round"><g transform="translate(215.33331298828125 405.11113484700513) rotate(0 72 -53.33332824707031)"><path d="M-0.86 0.03 C23.17 -17.89, 118.73 -88.67, 142.97 -106.56 M0.9 -0.99 C25.38 -18.19, 121.27 -87.4, 145.14 -104.96" stroke="#1e1e1e" stroke-width="2" fill="none"></path></g></g><mask></mask><g stroke-linecap="round"><g transform="translate(586.6666259765625 519.1111348470051) rotate(0 76.33331298828125 -0.3333282470703125)"><path d="M1.13 -0.25 C26.61 -0.42, 126.68 -1.48, 152.11 -1.65 M0.26 -1.42 C25.6 -1.43, 125.34 -0.82, 150.87 -0.63" stroke="#1e1e1e" stroke-width="2" fill="none"></path></g></g><mask></mask><g stroke-linecap="round"><g transform="translate(216 425.7778218587239) rotate(0 67.66665649414062 40.666656494140625)"><path d="M0.21 -0.11 C22.91 13.36, 112.6 68.02, 135.21 81.72 M-1.14 -1.22 C21.47 11.81, 111.45 66.25, 134.2 79.79" stroke="#1e1e1e" stroke-width="2" fill="none"></path></g></g><mask></mask><g stroke-linecap="round"><g transform="translate(587.3333129882812 539.7778218587239) rotate(0 67.66665649414062 40.666656494140625)"><path d="M-0.25 -0.56 C22.24 12.98, 111.85 68.64, 134.35 82.35 M1.83 1.76 C24.73 15.5, 114.58 67.79, 136.55 80.76" stroke="#1e1e1e" stroke-width="2" fill="none"></path></g></g><mask></mask><g stroke-linecap="round" transform="translate(362.6666259765625 281.11113484700513) rotate(0 108.33334350585938 142.33334350585938)"><path d="M32 0 C83.54 1.28, 134.23 0.77, 184.67 0 M32 0 C87.84 -2.09, 143.93 -1.61, 184.67 0 M184.67 0 C205.52 -1.5, 217.44 10.65, 216.67 32 M184.67 0 C207.55 -1.8, 214.58 9.17, 216.67 32 M216.67 32 C217.99 78.58, 219.92 125.95, 216.67 252.67 M216.67 32 C216.2 104.42, 215.97 177.22, 216.67 252.67 M216.67 252.67 C218.09 272.88, 205.05 284.5, 184.67 284.67 M216.67 252.67 C218.53 275.3, 206.69 285.32, 184.67 284.67 M184.67 284.67 C128.94 285.27, 70.3 284.13, 32 284.67 M184.67 284.67 C148.26 286.46, 110.78 285.61, 32 284.67 M32 284.67 C8.97 286.27, 0.16 274.39, 0 252.67 M32 284.67 C9.46 285.13, 2.26 275.13, 0 252.67 M0 252.67 C-2.09 201.32, -2.63 148.33, 0 32 M0 252.67 C1.65 173.99, 1.93 96.49, 0 32 M0 32 C-0.12 12.08, 9.8 -0.9, 32 0 M0 32 C0.83 9.77, 12.07 -0.78, 32 0" stroke="#1e1e1e" stroke-width="2" fill="none"></path></g><g transform="translate(398.6666259765625 306.4444783528645) rotate(0 81.05994415283203 112.5)"><text x="0" y="17.52" font-family="Virgil, Segoe UI Emoji" font-size="20px" fill="#1e1e1e" text-anchor="start" style="white-space: pre;" direction="ltr" dominant-baseline="alphabetic">post req to </text><text x="0" y="42.519999999999996" font-family="Virgil, Segoe UI Emoji" font-size="20px" fill="#1e1e1e" text-anchor="start" style="white-space: pre;" direction="ltr" dominant-baseline="alphabetic">validate route</text><text x="0" y="67.52" font-family="Virgil, Segoe UI Emoji" font-size="20px" fill="#1e1e1e" text-anchor="start" style="white-space: pre;" direction="ltr" dominant-baseline="alphabetic">[ - Create OTP</text><text x="0" y="92.52" font-family="Virgil, Segoe UI Emoji" font-size="20px" fill="#1e1e1e" text-anchor="start" style="white-space: pre;" direction="ltr" dominant-baseline="alphabetic">- AJAX to check</text><text x="0" y="117.52" font-family="Virgil, Segoe UI Emoji" font-size="20px" fill="#1e1e1e" text-anchor="start" style="white-space: pre;" direction="ltr" dominant-baseline="alphabetic">OTP ]</text><text x="0" y="142.52" font-family="Virgil, Segoe UI Emoji" font-size="20px" fill="#1e1e1e" text-anchor="start" style="white-space: pre;" direction="ltr" dominant-baseline="alphabetic"></text><text x="0" y="167.52" font-family="Virgil, Segoe UI Emoji" font-size="20px" fill="#1e1e1e" text-anchor="start" style="white-space: pre;" direction="ltr" dominant-baseline="alphabetic">- create acc </text><text x="0" y="192.52" font-family="Virgil, Segoe UI Emoji" font-size="20px" fill="#1e1e1e" text-anchor="start" style="white-space: pre;" direction="ltr" dominant-baseline="alphabetic">- delete signup </text><text x="0" y="217.52" font-family="Virgil, Segoe UI Emoji" font-size="20px" fill="#1e1e1e" text-anchor="start" style="white-space: pre;" direction="ltr" dominant-baseline="alphabetic">token (later)</text></g><g stroke-linecap="round" transform="translate(722 516.4445088704426) rotate(0 165.33334350585938 132.66665649414062)"><path d="M32 0 C124.93 2.36, 216.22 2.16, 298.67 0 M32 0 C96.5 2.27, 162.97 2.28, 298.67 0 M298.67 0 C320.84 -1.3, 330.79 8.75, 330.67 32 M298.67 0 C319.9 1.72, 330.72 9.74, 330.67 32 M330.67 32 C330.91 104.33, 330.8 174.06, 330.67 233.33 M330.67 32 C331.23 108.58, 330.2 184.03, 330.67 233.33 M330.67 233.33 C331.21 254.26, 320.45 266.67, 298.67 265.33 M330.67 233.33 C332.68 256.01, 321.54 267.48, 298.67 265.33 M298.67 265.33 C237.24 266.45, 173.46 267.83, 32 265.33 M298.67 265.33 C216.66 264.72, 135.81 264.94, 32 265.33 M32 265.33 C8.96 264.7, 0.55 252.81, 0 233.33 M32 265.33 C10.58 266.98, -1.12 256.78, 0 233.33 M0 233.33 C-1.91 164.98, 1.51 93.22, 0 32 M0 233.33 C-0.4 178.15, -0.16 123.32, 0 32 M0 32 C1.14 11.36, 11.91 -1.52, 32 0 M0 32 C-0.08 9.08, 8.5 1.15, 32 0" stroke="#1e1e1e" stroke-width="2" fill="none"></path></g><g transform="translate(764.6666870117188 531.7777608235676) rotate(0 135.64988708496094 50)"><text x="0" y="17.52" font-family="Virgil, Segoe UI Emoji" font-size="20px" fill="#1e1e1e" text-anchor="start" style="white-space: pre;" direction="ltr" dominant-baseline="alphabetic">- Node cron creates</text><text x="0" y="42.519999999999996" font-family="Virgil, Segoe UI Emoji" font-size="20px" fill="#1e1e1e" text-anchor="start" style="white-space: pre;" direction="ltr" dominant-baseline="alphabetic">signup token and sends mail</text><text x="0" y="67.52" font-family="Virgil, Segoe UI Emoji" font-size="20px" fill="#1e1e1e" text-anchor="start" style="white-space: pre;" direction="ltr" dominant-baseline="alphabetic">- User creates acc</text><text x="0" y="92.52" font-family="Virgil, Segoe UI Emoji" font-size="20px" fill="#1e1e1e" text-anchor="start" style="white-space: pre;" direction="ltr" dominant-baseline="alphabetic">- delete token from DB</text></g><g stroke-linecap="round" transform="translate(678.6667073567708 10) rotate(0 142.222188313802 38.333333333333314)"><path d="M19.17 0 C108.49 -0.31, 194.27 0.45, 265.28 0 M19.17 0 C93.92 -0.79, 167.39 -0.47, 265.28 0 M265.28 0 C276.91 1.63, 282.82 7.51, 284.44 19.17 M265.28 0 C279.53 -0.71, 285.07 8.38, 284.44 19.17 M284.44 19.17 C284.44 26.46, 284.37 34.26, 284.44 57.5 M284.44 19.17 C283.29 28.39, 284.99 37.91, 284.44 57.5 M284.44 57.5 C284.71 68.69, 279.61 76.6, 265.28 76.67 M284.44 57.5 C285.82 69.99, 277.69 75.68, 265.28 76.67 M265.28 76.67 C208.36 77.49, 153.5 76.2, 19.17 76.67 M265.28 76.67 C193.69 78.08, 122.21 76.98, 19.17 76.67 M19.17 76.67 C5.29 77.92, -0.39 72.18, 0 57.5 M19.17 76.67 C5.22 75.36, -1.88 72.56, 0 57.5 M0 57.5 C1.38 44.2, 0.84 31.3, 0 19.17 M0 57.5 C1.09 45.57, 1.28 33.52, 0 19.17 M0 19.17 C1.09 8.22, 7.53 0.37, 19.17 0 M0 19.17 C0.73 4.77, 5.41 -0.52, 19.17 0" stroke="#1e1e1e" stroke-width="2" fill="none"></path></g><g transform="translate(703.1111857096353 36.666666666666686) rotate(0 79.30992126464844 12.5)"><text x="0" y="17.52" font-family="Virgil, Segoe UI Emoji" font-size="20px" fill="#1e1e1e" text-anchor="start" style="white-space: pre;" direction="ltr" dominant-baseline="alphabetic">Signup controller</text></g><g stroke-linecap="round" transform="translate(1047.5556640624998 11.11109415690106) rotate(0 148.33333333333337 33.888880411783816)"><path d="M16.94 0 C73.19 -1.03, 127.4 -1.64, 279.72 0 M16.94 0 C119.09 1.77, 220.07 0.53, 279.72 0 M279.72 0 C291.71 0.99, 296.86 6.8, 296.67 16.94 M279.72 0 C290.84 0.69, 295.56 6.44, 296.67 16.94 M296.67 16.94 C296.34 28.65, 298.4 38.76, 296.67 50.83 M296.67 16.94 C296.12 24.08, 296.28 30.47, 296.67 50.83 M296.67 50.83 C295.12 60.17, 291.56 69.52, 279.72 67.78 M296.67 50.83 C298.28 63.79, 290.23 68.99, 279.72 67.78 M279.72 67.78 C204.16 68.49, 126.22 67.93, 16.94 67.78 M279.72 67.78 C224.86 67.58, 170.25 68.78, 16.94 67.78 M16.94 67.78 C5.54 67, -0.04 62.92, 0 50.83 M16.94 67.78 C5.49 65.96, -2.15 61.22, 0 50.83 M0 50.83 C1.13 40.69, -0.46 27.32, 0 16.94 M0 50.83 C-1.27 42.02, 0.43 34.35, 0 16.94 M0 16.94 C0.1 7.43, 5.79 -1.19, 16.94 0 M0 16.94 C-1.5 3.6, 5.52 -1.28, 16.94 0" stroke="#1e1e1e" stroke-width="2" fill="none"></path></g><g stroke-linecap="round" transform="translate(1057.5556640624998 192.2222391764323) rotate(0 148.33333333333337 33.888880411783816)"><path d="M16.94 0 C93.82 2.29, 170.23 1.89, 279.72 0 M16.94 0 C100.33 -2.11, 184.83 -2.06, 279.72 0 M279.72 0 C290.66 -0.02, 295.96 5.22, 296.67 16.94 M279.72 0 C292.53 -1.14, 296.68 5.56, 296.67 16.94 M296.67 16.94 C296.81 26.71, 295.82 34.73, 296.67 50.83 M296.67 16.94 C297.39 26.47, 296.81 36, 296.67 50.83 M296.67 50.83 C297.96 63.51, 291.15 68.85, 279.72 67.78 M296.67 50.83 C297.68 64.4, 288.75 69.01, 279.72 67.78 M279.72 67.78 C228.45 70.08, 173.19 69.31, 16.94 67.78 M279.72 67.78 C189.69 68.92, 100.85 68.65, 16.94 67.78 M16.94 67.78 C4.36 67.73, -0.48 62.83, 0 50.83 M16.94 67.78 C4.49 67.73, 0.5 61.53, 0 50.83 M0 50.83 C-1.42 37.83, -0.24 25.29, 0 16.94 M0 50.83 C-0.68 38.74, 0.3 27.97, 0 16.94 M0 16.94 C1.14 4.28, 4.23 0.52, 16.94 0 M0 16.94 C-0.51 7.17, 6.59 1.04, 16.94 0" stroke="#1e1e1e" stroke-width="2" fill="none"></path></g><g transform="translate(1070.8889973958333 33.333333333333314) rotate(0 127.52989196777344 12.5)"><text x="0" y="17.52" font-family="Virgil, Segoe UI Emoji" font-size="20px" fill="#1e1e1e" text-anchor="start" style="white-space: pre;" direction="ltr" dominant-baseline="alphabetic">redundant email controller</text></g><g transform="translate(1080.8889973958333 214.44447835286456) rotate(0 119.02989196777344 12.5)"><text x="0" y="17.52" font-family="Virgil, Segoe UI Emoji" font-size="20px" fill="#1e1e1e" text-anchor="start" style="white-space: pre;" direction="ltr" dominant-baseline="alphabetic">otp controller with email</text></g><g stroke-linecap="round"><g transform="translate(963.1111857096353 43.333333333333314) rotate(0 44.444427490234375 0)"><path d="M0.37 0.34 C14.88 0.52, 73.24 0.81, 88.17 0.74 M-0.9 -0.53 C13.9 -0.66, 75.4 -1.28, 90.51 -1" stroke="#1e1e1e" stroke-width="2" fill="none"></path></g></g><mask></mask><g stroke-linecap="round"><g transform="translate(973.1111857096353 224.44447835286456) rotate(0 44.444427490234375 0)"><path d="M0.47 -0.55 C15.47 -0.5, 74.23 -0.02, 89.06 0.23 M-0.74 1.77 C14.2 1.45, 73.25 -1.32, 88.2 -1.77" stroke="#1e1e1e" stroke-width="2" fill="none"></path></g></g><mask></mask><g stroke-linecap="round"><g transform="translate(810.8889973958333 85.55557250976562) rotate(0 1.1110941569010038 34.444427490234375)"><path d="M0.94 0.27 C1.26 12, 1.56 58.25, 1.78 69.52 M-0.03 -0.63 C0.11 10.83, 0.34 56.18, 0.59 67.73" stroke="#1e1e1e" stroke-width="2" fill="none"></path></g><g transform="translate(810.8889973958333 85.55557250976562) rotate(0 1.1110941569010038 34.444427490234375)"><path d="M-8.25 44.35 C-5.43 50.24, -2.29 57.71, 0.59 67.73 M-8.25 44.35 C-7.18 50.21, -3.49 54.15, 0.59 67.73" stroke="#1e1e1e" stroke-width="2" fill="none"></path></g><g transform="translate(810.8889973958333 85.55557250976562) rotate(0 1.1110941569010038 34.444427490234375)"><path d="M8.85 44.13 C6.77 50.22, 5 57.76, 0.59 67.73 M8.85 44.13 C6.24 49.98, 6.25 53.97, 0.59 67.73" stroke="#1e1e1e" stroke-width="2" fill="none"></path></g></g><mask></mask><g stroke-linecap="round" transform="translate(683.1111857096353 158.88890584309894) rotate(0 136.66666666666663 71.66666666666666)"><path d="M32 0 C97.56 -2.31, 163.43 0.68, 241.33 0 M32 0 C104.31 -1.29, 177.44 -1.56, 241.33 0 M241.33 0 C261.41 -0.97, 274.23 12.36, 273.33 32 M241.33 0 C262.8 -1.81, 272.69 12.41, 273.33 32 M273.33 32 C274.87 55.54, 273.64 82.4, 273.33 111.33 M273.33 32 C272.93 50.06, 274.38 68.55, 273.33 111.33 M273.33 111.33 C273.48 131.06, 263.39 142.16, 241.33 143.33 M273.33 111.33 C274.45 131.97, 264.4 143.81, 241.33 143.33 M241.33 143.33 C187.43 144.87, 135.07 142.83, 32 143.33 M241.33 143.33 C195.64 142.72, 149.71 142.43, 32 143.33 M32 143.33 C11.83 143.8, 0.46 130.67, 0 111.33 M32 143.33 C8.81 144.04, 2.03 134.92, 0 111.33 M0 111.33 C2.23 89.76, -0.93 69.13, 0 32 M0 111.33 C0.76 88.78, 1.05 63.81, 0 32 M0 32 C-0.27 11.46, 10.97 1.59, 32 0 M0 32 C1.98 8.74, 12.52 -0.67, 32 0" stroke="#1e1e1e" stroke-width="2" fill="none"></path></g><g transform="translate(710.8889973958333 175.55557250976562) rotate(0 123.05989074707031 37.5)"><text x="0" y="17.52" font-family="Virgil, Segoe UI Emoji" font-size="20px" fill="#1e1e1e" text-anchor="start" style="white-space: pre;" direction="ltr" dominant-baseline="alphabetic">verify account contr.</text><text x="0" y="42.519999999999996" font-family="Virgil, Segoe UI Emoji" font-size="20px" fill="#1e1e1e" text-anchor="start" style="white-space: pre;" direction="ltr" dominant-baseline="alphabetic">save userEmail to cookie</text><text x="0" y="67.52" font-family="Virgil, Segoe UI Emoji" font-size="20px" fill="#1e1e1e" text-anchor="start" style="white-space: pre;" direction="ltr" dominant-baseline="alphabetic">v</text></g></svg>